<?xml version="1.0" encoding="utf-8"?>
<!-- Generator: Adobe Illustrator 27.0.0, SVG Export Plug-In . SVG Version: 6.00 Build 0)  -->
<svg version="1.1" id="Layer_1" xmlns="http://www.w3.org/2000/svg" xmlns:xlink="http://www.w3.org/1999/xlink" x="0px" y="0px"
	 viewBox="0 0 612 146.91" style="enable-background:new 0 0 612 146.91;" xml:space="preserve">
<style type="text/css">
	.st0{fill:url(#SVGID_1_);}
</style>
<g>
	<g>
		<path d="M15.72,41.9h27.91c7.49,0,13.39,2.15,17.14,5.81c2.71,2.81,4.21,6.28,4.21,10.49v0.19c0,8.52-5.24,12.93-10.39,15.17
			c7.77,2.34,14.05,6.84,14.05,15.83v0.19c0,11.24-9.46,17.89-23.79,17.89H15.72V41.9z M57.49,59.23c0-6.46-5.15-10.68-14.52-10.68
			H23.02v22.57h19.39c8.9,0,15.08-4.03,15.08-11.71V59.23z M43.72,77.68h-20.7v23.13h22.01c9.93,0,16.11-4.4,16.11-11.71v-0.19
			C61.14,81.8,55.15,77.68,43.72,77.68z"/>
		<path d="M94.92,41.48h7.4v58.72h36.9v6.84h-44.3V41.48z"/>
		<path d="M155.75,74.87v-0.19c0-18.07,13.58-33.9,33.53-33.9c19.95,0,33.34,15.64,33.34,33.72v0.19c0,18.08-13.58,33.9-33.53,33.9
			C169.14,108.58,155.75,92.94,155.75,74.87z M214.94,74.87v-0.19c0-14.89-10.86-27.06-25.85-27.06s-25.66,11.99-25.66,26.88v0.19
			c0,14.89,10.86,27.07,25.85,27.07S214.94,89.76,214.94,74.87z"/>
		<path d="M406.04,40.91h6.93l29.87,66.03h-7.96l-7.68-17.33h-35.68l-7.77,17.33h-7.59L406.04,40.91z M424.3,82.87l-14.89-33.34
			l-14.98,33.34H424.3z"/>
		<path d="M464.77,41.9h22.76c20.6,0,34.84,14.14,34.84,32.59v0.19c0,18.45-14.23,32.78-34.84,32.78h-22.76V41.9z M472.17,48.74
			v51.89h15.36c16.58,0,27.16-11.24,27.16-25.76v-0.19c0-14.52-10.58-25.94-27.16-25.94H472.17z"/>
		<path d="M541.37,41.48h47.39v6.74h-39.99v22.38h35.77v6.74h-35.77v22.94h40.46v6.74h-47.86V41.48z"/>
		<g>
			<path d="M356,136.42l-15.67-13.98c-9.94,7.75-22.57,12.47-37.06,12.47c-35.88,0-59.97-28.13-59.97-60.64v-0.34
				c0-32.51,24.42-60.98,60.3-60.98s59.97,28.13,59.97,60.64v0.34c0,14.66-5.22,28.64-13.98,39.42l15.5,13.14L356,136.42z
				 M330.9,113.85l-22.07-18.87l8.93-9.94l22.07,20.04c6.4-8.42,9.94-19.03,9.94-30.82v-0.34c0-26.78-19.54-48.68-46.49-48.68
				c-26.95,0-46.15,21.56-46.15,48.34v0.34c0,26.79,19.54,48.68,46.49,48.68C314.06,122.6,323.49,119.41,330.9,113.85z"/>
			<radialGradient id="SVGID_1_" cx="284.2379" cy="40.978" r="70.4312" gradientUnits="userSpaceOnUse">
				<stop  offset="0" style="stop-color:#FFFFFF"/>
				<stop  offset="0.1264" style="stop-color:#FBFAFF"/>
				<stop  offset="0.2679" style="stop-color:#F1EDFF"/>
				<stop  offset="0.4168" style="stop-color:#E0D6FF"/>
				<stop  offset="0.5707" style="stop-color:#C7B7FF"/>
				<stop  offset="0.7287" style="stop-color:#A88FFF"/>
				<stop  offset="0.8875" style="stop-color:#825EFF"/>
				<stop  offset="1" style="stop-color:#6437FF"/>
			</radialGradient>
			<circle class="st0" cx="303.78" cy="74.68" r="49.44"/>
		</g>
	</g>
</g>
</svg>
