<?xml version="1.0" encoding="UTF-8"?><svg xmlns="http://www.w3.org/2000/svg" xmlns:xlink="http://www.w3.org/1999/xlink" viewBox="0 0 926 424.23"><defs><style>.f{fill:url(#e);}.g{fill:url(#d);opacity:.64;}.h{fill:url(#c);opacity:.69;}</style><radialGradient id="c" cx="451.93" cy="72.49" fx="451.93" fy="72.49" r="294.56" gradientTransform="matrix(1, 0, 0, 1, 0, 0)" gradientUnits="userSpaceOnUse"><stop offset="0" stop-color="#fff"/><stop offset=".34" stop-color="#e5b1c8" stop-opacity=".87"/><stop offset=".77" stop-color="#c2477f" stop-opacity=".7"/></radialGradient><linearGradient id="d" x1="0" y1="225.25" x2="926" y2="225.25" gradientTransform="matrix(1, 0, 0, 1, 0, 0)" gradientUnits="userSpaceOnUse"><stop offset="0" stop-color="#fff" stop-opacity="0"/><stop offset=".01" stop-color="#fdf6f6" stop-opacity=".05"/><stop offset=".12" stop-color="#f3b8ba" stop-opacity=".38"/><stop offset=".21" stop-color="#eb878b" stop-opacity=".65"/><stop offset=".29" stop-color="#e56469" stop-opacity=".84"/><stop offset=".35" stop-color="#e24f54" stop-opacity=".96"/><stop offset=".39" stop-color="#e1474d"/><stop offset=".65" stop-color="#e1474d"/><stop offset=".68" stop-color="#e14b51" stop-opacity=".98"/><stop offset=".73" stop-color="#e3585d" stop-opacity=".91"/><stop offset=".78" stop-color="#e76d72" stop-opacity=".79"/><stop offset=".84" stop-color="#ec8a8e" stop-opacity=".63"/><stop offset=".9" stop-color="#f2b0b3" stop-opacity=".42"/><stop offset=".96" stop-color="#f9dedf" stop-opacity=".18"/><stop offset="1" stop-color="#fff" stop-opacity="0"/></linearGradient><radialGradient id="e" cx="437.85" cy="183.69" fx="437.85" fy="183.69" r="88.87" gradientTransform="translate(575.68 -276.06) rotate(76.63)" gradientUnits="userSpaceOnUse"><stop offset="0" stop-color="#fff"/><stop offset=".13" stop-color="#fafcfd"/><stop offset=".28" stop-color="#ecf4fa"/><stop offset=".44" stop-color="#d6e8f5"/><stop offset=".61" stop-color="#b7d7ee"/><stop offset=".77" stop-color="#8ec0e4"/><stop offset=".94" stop-color="#5ea6d9"/><stop offset="1" stop-color="#4c9cd5"/></radialGradient></defs><g id="a"/><g id="b"><g><circle class="h" cx="463" cy="212.12" r="212.12"/><path class="g" d="M926,404.02h0c-303.81-117.31-622.19-117.31-926,0H0V46.48H0c303.81,117.31,622.19,117.31,926,0h0V404.02Z"/><g><path d="M99.02,184.85h35.22c9.45,0,16.9,2.72,21.63,7.33,3.43,3.55,5.32,7.92,5.32,13.24v.24c0,10.76-6.62,16.31-13.12,19.15,9.81,2.95,17.73,8.63,17.73,19.97v.24c0,14.18-11.94,22.57-30.02,22.57h-36.75v-82.72Zm52.71,21.86c0-8.16-6.5-13.47-18.32-13.47h-25.17v28.48h24.46c11.23,0,19.03-5.08,19.03-14.77v-.24Zm-17.37,23.28h-26.12v29.19h27.77c12.53,0,20.33-5.55,20.33-14.77v-.24c0-8.98-7.56-14.18-21.98-14.18Z"/><path d="M198.96,184.32h9.34v74.1h46.56v8.63h-55.9v-82.72Z"/><path d="M275.72,226.45v-.24c0-22.81,17.13-42.78,42.31-42.78s42.07,19.74,42.07,42.54v.24c0,22.81-17.14,42.78-42.31,42.78s-42.07-19.74-42.07-42.54Zm74.69,0v-.24c0-18.79-13.71-34.15-32.62-34.15s-32.38,15.13-32.38,33.92v.24c0,18.79,13.71,34.15,32.62,34.15s32.38-15.13,32.38-33.92Z"/><path d="M591.54,183.6h8.75l37.7,83.31h-10.04l-9.69-21.86h-45.03l-9.81,21.86h-9.57l37.7-83.31Zm23.04,52.94l-18.79-42.07-18.91,42.07h37.7Z"/><path d="M665.66,184.85h28.72c26,0,43.96,17.84,43.96,41.12v.24c0,23.28-17.96,41.36-43.96,41.36h-28.72v-82.72Zm9.34,8.63v65.47h19.38c20.92,0,34.27-14.18,34.27-32.5v-.24c0-18.32-13.35-32.73-34.27-32.73h-19.38Z"/><path d="M762.31,184.32h59.8v8.51h-50.46v28.24h45.14v8.51h-45.14v28.95h51.05v8.51h-60.39v-82.72Z"/><g><path d="M528.41,304.12l-19.77-17.64c-12.54,9.78-28.48,15.73-46.76,15.73-45.27,0-75.67-35.5-75.67-76.52v-.43c0-41.02,30.82-76.94,76.09-76.94s75.67,35.5,75.67,76.52v.42c0,18.49-6.59,36.14-17.64,49.74l19.56,16.58-11.48,12.54Zm-31.67-28.48l-27.85-23.81,11.27-12.54,27.84,25.29c8.08-10.63,12.54-24.02,12.54-38.89v-.43c0-33.79-24.65-61.42-58.66-61.42s-58.24,27.21-58.24,61v.42c0,33.8,24.65,61.43,58.66,61.43,13.18,0,25.08-4.04,34.44-11.05Z"/><circle class="f" cx="462.51" cy="226.22" r="62.38" transform="translate(135.51 623.91) rotate(-76.63)"/></g></g></g></g></svg>